<svg xmlns="http://www.w3.org/2000/svg" xmlns:xlink="http://www.w3.org/1999/xlink" width="1800" height="1480" viewBox="0 0 1800 1480">
  <defs>
    <pattern id="grid" width="40" height="40" patternUnits="userSpaceOnUse">
      <path d="M 40 0 L 0 0 0 40" fill="none" stroke="#1e293b" stroke-width="1"/>
    </pattern>
    <marker id="arrow" markerWidth="10" markerHeight="10" refX="8" refY="5" orient="auto" markerUnits="strokeWidth">
      <path d="M 0 0 L 10 5 L 0 10 z" fill="#67e8f9"/>
    </marker>
    <style><![CDATA[
      text {
        font-family: "Segoe UI", Arial, sans-serif;
        fill: #e2f6ff;
      }
      .title {
        font-size: 30px;
        font-weight: 700;
        letter-spacing: 0.6px;
      }
      .subtitle {
        font-size: 14px;
        fill: #93c5fd;
      }
      .floor-title {
        font-size: 22px;
        font-weight: 700;
      }
      .floor-subtitle {
        font-size: 13px;
        fill: #a5f3fc;
      }
      .panel-note {
        font-size: 13px;
        fill: #bfdbfe;
      }
      .small {
        font-size: 11px;
      }
      .micro {
        font-size: 9.5px;
        fill: #bfdbfe;
      }
      .pill-text {
        font-size: 11.5px;
        font-weight: 700;
        fill: #082f49;
      }
      .pill-text-orange {
        font-size: 11.5px;
        font-weight: 700;
        fill: #f97316;
      }
      .text-badge {
        fill: #0f172a;
        fill-opacity: 0.94;
        stroke: #fb923c;
        stroke-width: 1.2;
      }
      .label {
        font-size: 12px;
        font-weight: 600;
      }
      .line-label {
        font-size: 13px;
        font-weight: 700;
        fill: #f8fafc;
      }
      .legend-title {
        font-size: 14px;
        font-weight: 700;
      }
      .legend-text {
        font-size: 12px;
        fill: #cbd5e1;
      }
      .panel {
        fill: #0f172a;
        fill-opacity: 0.82;
        stroke: #67e8f9;
        stroke-width: 2;
      }
      .walkway {
        fill: #1f2937;
        fill-opacity: 0.75;
        stroke: #64748b;
        stroke-dasharray: 8 6;
      }
      .smelter {
        fill: #fb923c;
        stroke: #fdba74;
        stroke-width: 1.5;
      }
      .electronics {
        fill: #c084fc;
        stroke: #d8b4fe;
        stroke-width: 1.5;
      }
      .buffer {
        fill: #4ade80;
        stroke: #86efac;
        stroke-width: 1.5;
      }
      .transfer {
        fill: #facc15;
        stroke: #fde68a;
        stroke-width: 1.5;
      }
      .glass {
        fill: #22d3ee;
        stroke: #a5f3fc;
        stroke-width: 1.2;
      }
      .hub {
        fill: #f8fafc;
        stroke: #e2e8f0;
        stroke-width: 1.5;
      }
      .zone {
        fill: none;
        stroke: #475569;
        stroke-width: 1.4;
        stroke-dasharray: 6 6;
      }
      .flow {
        fill: none;
        stroke: #67e8f9;
        stroke-width: 2;
        marker-end: url(#arrow);
      }
      .connector {
        fill: none;
        stroke: #7dd3fc;
        stroke-width: 1.8;
      }
      .main-flow {
        fill: none;
        stroke: #22d3ee;
        stroke-width: 3;
        stroke-dasharray: 10 8;
        marker-end: url(#arrow);
      }
      .frame {
        fill: #0f172a;
        fill-opacity: 0.65;
        stroke: #38bdf8;
        stroke-width: 1.3;
      }
    ]]></style>
    <g id="feed-module">
      <rect x="1" y="1" width="218" height="56" rx="12" class="frame"/>
      <rect x="9" y="10" width="58" height="38" rx="7" class="transfer"/>
      <rect x="81" y="10" width="58" height="38" rx="7" class="transfer"/>
      <rect x="153" y="10" width="58" height="38" rx="7" class="buffer"/>
      <text x="38" y="33" text-anchor="middle" class="pill-text">TU AM</text>
      <text x="110" y="33" text-anchor="middle" class="pill-text">TU QA</text>
      <text x="182" y="33" text-anchor="middle" class="pill-text">Support</text>
      <path d="M 67 29 L 81 29" class="flow"/>
      <path d="M 139 29 L 153 29" class="flow"/>
    </g>
    <g id="glass-module">
      <rect x="1" y="1" width="218" height="112" rx="12" class="frame"/>
      <rect x="74" y="8" width="72" height="22" rx="7" class="buffer"/>
      <text x="110" y="23" text-anchor="middle" class="pill-text">Support</text>
      <path d="M 110 30 L 110 40" class="flow"/>
      <rect x="10" y="46" width="32" height="24" rx="5" class="glass"/>
      <rect x="52" y="46" width="32" height="24" rx="5" class="glass"/>
      <rect x="94" y="46" width="32" height="24" rx="5" class="glass"/>
      <rect x="136" y="46" width="32" height="24" rx="5" class="glass"/>
      <rect x="178" y="46" width="32" height="24" rx="5" class="glass"/>
      <rect x="10" y="78" width="32" height="24" rx="5" class="glass"/>
      <rect x="52" y="78" width="32" height="24" rx="5" class="glass"/>
      <rect x="94" y="78" width="32" height="24" rx="5" class="glass"/>
      <rect x="136" y="78" width="32" height="24" rx="5" class="glass"/>
      <rect x="178" y="78" width="32" height="24" rx="5" class="glass"/>
      <text x="26" y="62" text-anchor="middle" class="pill-text">G1</text>
      <text x="68" y="62" text-anchor="middle" class="pill-text">G2</text>
      <text x="110" y="62" text-anchor="middle" class="pill-text">G3</text>
      <text x="152" y="62" text-anchor="middle" class="pill-text">G4</text>
      <text x="194" y="62" text-anchor="middle" class="pill-text">G5</text>
      <text x="26" y="94" text-anchor="middle" class="pill-text">G6</text>
      <text x="68" y="94" text-anchor="middle" class="pill-text">G7</text>
      <text x="110" y="94" text-anchor="middle" class="pill-text">G8</text>
      <text x="152" y="94" text-anchor="middle" class="pill-text">G9</text>
      <text x="194" y="94" text-anchor="middle" class="pill-text">G10</text>
    </g>
  </defs>

  <rect x="0" y="0" width="1800" height="1480" fill="#020617"/>
  <rect x="0" y="0" width="1800" height="1480" fill="url(#grid)"/>

  <text x="60" y="56" class="title">Warp Cell Factory Blueprint</text>
  <text x="60" y="82" class="subtitle">7 active lines | shared upstream block -> line feed -> Glass2 modules -> output collection</text>

  <g transform="translate(1380 26)">
    <rect x="0" y="0" width="340" height="72" rx="14" class="panel"/>
    <text x="18" y="24" class="legend-title">Legend</text>
    <rect x="18" y="36" width="18" height="12" rx="3" class="smelter"/>
    <text x="46" y="46" class="legend-text">Smelters</text>
    <rect x="112" y="36" width="18" height="12" rx="3" class="electronics"/>
    <text x="140" y="46" class="legend-text">Electronics2</text>
    <rect x="234" y="36" width="18" height="12" rx="3" class="buffer"/>
    <text x="262" y="46" class="legend-text">Buffers</text>
    <rect x="18" y="54" width="18" height="12" rx="3" class="transfer"/>
    <text x="46" y="64" class="legend-text">Transfer Units</text>
    <rect x="112" y="54" width="18" height="12" rx="3" class="glass"/>
    <text x="140" y="64" class="legend-text">Glass2</text>
    <rect x="234" y="54" width="18" height="12" rx="3" class="hub"/>
    <text x="262" y="64" class="legend-text">Hub</text>
  </g>

  <line x1="1645" y1="1430" x2="1645" y2="145" class="main-flow"/>
  <text x="1663" y="760" transform="rotate(-90 1663 760)" class="label">Material flow up</text>

  <rect x="60" y="110" width="1680" height="250" rx="22" class="panel"/>
  <text x="92" y="146" class="floor-title">Floor 4 - Output Collection</text>
  <text x="92" y="168" class="floor-subtitle">Y = 28 to 32 | 7 Warp Cells S buffers -> 2 TU Warp Cells -> central hub</text>
  <rect x="1510" y="182" width="180" height="118" rx="14" class="zone"/>
  <text x="1530" y="208" class="panel-note">Buffers stay near</text>
  <text x="1530" y="228" class="panel-note">their line modules.</text>
  <text x="1530" y="258" class="panel-note">Collection folds inward</text>
  <text x="1530" y="278" class="panel-note">toward the central hub.</text>

  <text x="250" y="182" text-anchor="middle" class="line-label">L1</text>
  <text x="580" y="182" text-anchor="middle" class="line-label">L2</text>
  <text x="910" y="182" text-anchor="middle" class="line-label">L3</text>
  <text x="1240" y="182" text-anchor="middle" class="line-label">L4</text>
  <text x="415" y="226" text-anchor="middle" class="line-label">L5</text>
  <text x="745" y="226" text-anchor="middle" class="line-label">L6</text>
  <text x="1075" y="226" text-anchor="middle" class="line-label">L7</text>

  <rect x="195" y="192" width="110" height="34" rx="8" class="buffer"/>
  <rect x="525" y="192" width="110" height="34" rx="8" class="buffer"/>
  <rect x="855" y="192" width="110" height="34" rx="8" class="buffer"/>
  <rect x="1185" y="192" width="110" height="34" rx="8" class="buffer"/>
  <text x="250" y="214" text-anchor="middle" class="pill-text">Warp Cells S1</text>
  <text x="580" y="214" text-anchor="middle" class="pill-text">Warp Cells S2</text>
  <text x="910" y="214" text-anchor="middle" class="pill-text">Warp Cells S3</text>
  <text x="1240" y="214" text-anchor="middle" class="pill-text">Warp Cells S4</text>

  <rect x="360" y="236" width="110" height="34" rx="8" class="buffer"/>
  <rect x="690" y="236" width="110" height="34" rx="8" class="buffer"/>
  <rect x="1020" y="236" width="110" height="34" rx="8" class="buffer"/>
  <text x="415" y="258" text-anchor="middle" class="pill-text">Warp Cells S5</text>
  <text x="745" y="258" text-anchor="middle" class="pill-text">Warp Cells S6</text>
  <text x="1075" y="258" text-anchor="middle" class="pill-text">Warp Cells S7</text>

  <rect x="160" y="280" width="1270" height="22" rx="10" class="walkway"/>
  <text x="795" y="295" text-anchor="middle" class="small">OUTPUT WALKWAY</text>

  <line x1="250" y1="226" x2="250" y2="280" class="connector"/>
  <line x1="580" y1="226" x2="580" y2="280" class="connector"/>
  <line x1="910" y1="226" x2="910" y2="280" class="connector"/>
  <line x1="1240" y1="226" x2="1240" y2="280" class="connector"/>
  <line x1="415" y1="270" x2="415" y2="280" class="connector"/>
  <line x1="745" y1="270" x2="745" y2="280" class="connector"/>
  <line x1="1075" y1="270" x2="1075" y2="280" class="connector"/>
  <line x1="250" y1="280" x2="1240" y2="280" class="connector"/>

  <rect x="650" y="312" width="120" height="36" rx="8" class="transfer"/>
  <rect x="820" y="312" width="120" height="36" rx="8" class="transfer"/>
  <rect x="990" y="312" width="120" height="36" rx="8" class="hub"/>
  <text x="710" y="335" text-anchor="middle" class="pill-text">TU Warp 1</text>
  <text x="880" y="335" text-anchor="middle" class="pill-text">TU Warp 2</text>
  <text x="1050" y="335" text-anchor="middle" class="pill-text">Hub</text>
  <path d="M 780 280 L 780 312" class="flow"/>
  <path d="M 940 330 L 990 330" class="flow"/>

  <rect x="60" y="390" width="1680" height="370" rx="22" class="panel"/>
  <text x="92" y="426" class="floor-title">Floor 3 - Glass2 Production</text>
  <text x="92" y="448" class="floor-subtitle">Y = 18 to 26 | 7 identical modules, each = 1 Support + 10 Glass2 in a 5 x 2 grid</text>
  <rect x="1510" y="468" width="180" height="176" rx="14" class="zone"/>
  <text x="1530" y="494" class="panel-note">Module target:</text>
  <text x="1530" y="514" class="panel-note">about 11 m wide</text>
  <text x="1530" y="534" class="panel-note">about 13 m deep</text>
  <text x="1530" y="564" class="panel-note">Horizontal gap:</text>
  <text x="1530" y="584" class="panel-note">about 2 m</text>
  <text x="1530" y="614" class="panel-note">Middle strip is the</text>
  <text x="1530" y="634" class="panel-note">main build walkway.</text>

  <rect x="160" y="592" width="1270" height="24" rx="10" class="walkway"/>
  <text x="795" y="607" text-anchor="middle" class="small">CENTRAL WALKWAY</text>

  <text x="250" y="458" text-anchor="middle" class="line-label">L1</text>
  <text x="580" y="458" text-anchor="middle" class="line-label">L2</text>
  <text x="910" y="458" text-anchor="middle" class="line-label">L3</text>
  <text x="1240" y="458" text-anchor="middle" class="line-label">L4</text>
  <text x="415" y="620" text-anchor="middle" class="line-label">L5</text>
  <text x="745" y="620" text-anchor="middle" class="line-label">L6</text>
  <text x="1075" y="620" text-anchor="middle" class="line-label">L7</text>

  <use href="#glass-module" xlink:href="#glass-module" transform="translate(140 468)"/>
  <use href="#glass-module" xlink:href="#glass-module" transform="translate(470 468)"/>
  <use href="#glass-module" xlink:href="#glass-module" transform="translate(800 468)"/>
  <use href="#glass-module" xlink:href="#glass-module" transform="translate(1130 468)"/>
  <use href="#glass-module" xlink:href="#glass-module" transform="translate(305 628)"/>
  <use href="#glass-module" xlink:href="#glass-module" transform="translate(635 628)"/>
  <use href="#glass-module" xlink:href="#glass-module" transform="translate(965 628)"/>

  <rect x="60" y="790" width="1680" height="250" rx="22" class="panel"/>
  <text x="92" y="826" class="floor-title">Floor 2 - Per-Line Support Feed</text>
  <text x="92" y="848" class="floor-subtitle">Y = 12 to 16 | each line root = TU AM Core + TU QA Unit + WCell Support XS</text>
  <rect x="1510" y="864" width="180" height="122" rx="14" class="zone"/>
  <text x="1530" y="890" class="panel-note">This floor fans the</text>
  <text x="1530" y="910" class="panel-note">shared buffers into</text>
  <text x="1530" y="930" class="panel-note">exactly 7 active lines.</text>
  <text x="1530" y="960" class="panel-note">Arrangement stays</text>
  <text x="1530" y="980" class="panel-note">aligned with Floor 3.</text>

  <rect x="160" y="928" width="1270" height="22" rx="10" class="walkway"/>
  <text x="795" y="943" text-anchor="middle" class="small">SERVICE WALKWAY</text>

  <text x="250" y="858" text-anchor="middle" class="line-label">L1</text>
  <text x="580" y="858" text-anchor="middle" class="line-label">L2</text>
  <text x="910" y="858" text-anchor="middle" class="line-label">L3</text>
  <text x="1240" y="858" text-anchor="middle" class="line-label">L4</text>
  <text x="415" y="962" text-anchor="middle" class="line-label">L5</text>
  <text x="745" y="962" text-anchor="middle" class="line-label">L6</text>
  <text x="1075" y="962" text-anchor="middle" class="line-label">L7</text>

  <use href="#feed-module" xlink:href="#feed-module" transform="translate(140 866)"/>
  <use href="#feed-module" xlink:href="#feed-module" transform="translate(470 866)"/>
  <use href="#feed-module" xlink:href="#feed-module" transform="translate(800 866)"/>
  <use href="#feed-module" xlink:href="#feed-module" transform="translate(1130 866)"/>
  <use href="#feed-module" xlink:href="#feed-module" transform="translate(305 970)"/>
  <use href="#feed-module" xlink:href="#feed-module" transform="translate(635 970)"/>
  <use href="#feed-module" xlink:href="#feed-module" transform="translate(965 970)"/>

  <rect x="60" y="1070" width="1680" height="380" rx="22" class="panel"/>
  <text x="92" y="1106" class="floor-title">Floor 1 - Shared Upstream Block</text>
  <text x="92" y="1128" class="floor-subtitle">Y = 0 to 10 | smelters, 10 producer banks of Electronics2, AM/QA outputs, and missing support-input layers</text>
  <rect x="1510" y="1158" width="180" height="176" rx="14" class="zone"/>
  <text x="1530" y="1184" class="panel-note">Live trace changed this floor.</text>
  <text x="1530" y="1214" class="panel-note">The old 3 x 3 bank is wrong.</text>
  <text x="1530" y="1244" class="panel-note">Real branch uses 10 banks</text>
  <text x="1530" y="1264" class="panel-note">x 10 Electronics2 = 100.</text>
  <text x="1530" y="1294" class="panel-note">Support XS sits about</text>
  <text x="1530" y="1314" class="panel-note">1.5 m above each output.</text>
  <text x="1530" y="1344" class="panel-note">Feeder TUs sit east.</text>

  <rect x="120" y="1150" width="1290" height="104" rx="14" class="zone"/>
  <text x="140" y="1172" class="label">Smelter zone</text>

  <rect x="140" y="1186" width="64" height="26" rx="6" class="smelter"/>
  <text x="172" y="1203" text-anchor="middle" class="pill-text">AlFe</text>
  <rect x="214" y="1186" width="64" height="26" rx="6" class="smelter"/>
  <rect x="288" y="1186" width="64" height="26" rx="6" class="smelter"/>
  <rect x="362" y="1186" width="64" height="26" rx="6" class="smelter"/>
  <rect x="436" y="1186" width="64" height="26" rx="6" class="smelter"/>
  <rect x="510" y="1186" width="64" height="26" rx="6" class="smelter"/>
  <rect x="584" y="1186" width="64" height="26" rx="6" class="smelter"/>
  <rect x="658" y="1186" width="64" height="26" rx="6" class="smelter"/>
  <rect x="732" y="1186" width="64" height="26" rx="6" class="smelter"/>
  <rect x="806" y="1186" width="64" height="26" rx="6" class="smelter"/>
  <text x="542" y="1203" text-anchor="middle" class="pill-text">Cu-Ag 1..9</text>

  <rect x="177" y="1220" width="64" height="26" rx="6" class="smelter"/>
  <rect x="251" y="1220" width="64" height="26" rx="6" class="smelter"/>
  <rect x="325" y="1220" width="64" height="26" rx="6" class="smelter"/>
  <rect x="399" y="1220" width="64" height="26" rx="6" class="smelter"/>
  <rect x="473" y="1220" width="64" height="26" rx="6" class="smelter"/>
  <rect x="547" y="1220" width="64" height="26" rx="6" class="smelter"/>
  <rect x="621" y="1220" width="64" height="26" rx="6" class="smelter"/>
  <rect x="695" y="1220" width="64" height="26" rx="6" class="smelter"/>
  <rect x="769" y="1220" width="64" height="26" rx="6" class="smelter"/>
  <text x="505" y="1237" text-anchor="middle" class="pill-text">CaCo 1..9</text>

  <rect x="120" y="1264" width="1290" height="24" rx="10" class="walkway"/>
  <text x="765" y="1280" text-anchor="middle" class="small">FRONT WALKWAY</text>

  <rect x="120" y="1300" width="300" height="136" rx="14" class="zone"/>
  <text x="140" y="1322" class="label">Adv AM Core branch</text>
  <rect x="142" y="1334" width="40" height="26" rx="6" class="buffer"/>
  <rect x="188" y="1334" width="40" height="26" rx="6" class="buffer"/>
  <rect x="234" y="1334" width="40" height="26" rx="6" class="buffer"/>
  <rect x="280" y="1334" width="40" height="26" rx="6" class="buffer"/>
  <rect x="326" y="1334" width="40" height="26" rx="6" class="buffer"/>
  <text x="162" y="1351" text-anchor="middle" class="pill-text">S1</text>
  <text x="208" y="1351" text-anchor="middle" class="pill-text">S2</text>
  <text x="254" y="1351" text-anchor="middle" class="pill-text">S3</text>
  <text x="300" y="1351" text-anchor="middle" class="pill-text">S4</text>
  <text x="346" y="1351" text-anchor="middle" class="pill-text">S5</text>
  <rect x="148" y="1370" width="28" height="24" rx="5" class="buffer"/>
  <rect x="194" y="1370" width="28" height="24" rx="5" class="buffer"/>
  <rect x="240" y="1370" width="28" height="24" rx="5" class="buffer"/>
  <rect x="286" y="1370" width="28" height="24" rx="5" class="buffer"/>
  <rect x="332" y="1370" width="28" height="24" rx="5" class="buffer"/>
  <text x="162" y="1386" text-anchor="middle" class="pill-text">XS</text>
  <text x="208" y="1386" text-anchor="middle" class="pill-text">XS</text>
  <text x="254" y="1386" text-anchor="middle" class="pill-text">XS</text>
  <text x="300" y="1386" text-anchor="middle" class="pill-text">XS</text>
  <text x="346" y="1386" text-anchor="middle" class="pill-text">XS</text>
  <rect x="190" y="1398" width="132" height="20" rx="8" class="text-badge"/>
  <text x="256" y="1412" text-anchor="middle" class="pill-text-orange">5 outputs + 5 supports</text>
  <text x="140" y="1422" class="micro">S1: AlFe XS9 + BasComp XS7</text>
  <text x="140" y="1434" class="micro">S2-S5: each support adds CaReinfCop + Cu-Ag feeds</text>

  <rect x="440" y="1300" width="360" height="136" rx="14" class="zone"/>
  <text x="460" y="1322" class="label">10 producer banks of Electronics2</text>
  <rect x="462" y="1334" width="58" height="24" rx="6" class="electronics"/>
  <rect x="528" y="1334" width="58" height="24" rx="6" class="electronics"/>
  <rect x="594" y="1334" width="58" height="24" rx="6" class="electronics"/>
  <rect x="660" y="1334" width="58" height="24" rx="6" class="electronics"/>
  <rect x="726" y="1334" width="58" height="24" rx="6" class="electronics"/>
  <rect x="462" y="1364" width="58" height="24" rx="6" class="electronics"/>
  <rect x="528" y="1364" width="58" height="24" rx="6" class="electronics"/>
  <rect x="594" y="1364" width="58" height="24" rx="6" class="electronics"/>
  <rect x="660" y="1364" width="58" height="24" rx="6" class="electronics"/>
  <rect x="726" y="1364" width="58" height="24" rx="6" class="electronics"/>
  <text x="491" y="1350" text-anchor="middle" class="pill-text">AM1</text>
  <text x="557" y="1350" text-anchor="middle" class="pill-text">AM2</text>
  <text x="623" y="1350" text-anchor="middle" class="pill-text">AM3</text>
  <text x="689" y="1350" text-anchor="middle" class="pill-text">AM4</text>
  <text x="755" y="1350" text-anchor="middle" class="pill-text">AM5</text>
  <text x="491" y="1380" text-anchor="middle" class="pill-text">QA1</text>
  <text x="557" y="1380" text-anchor="middle" class="pill-text">QA2</text>
  <text x="623" y="1380" text-anchor="middle" class="pill-text">QA3</text>
  <text x="689" y="1380" text-anchor="middle" class="pill-text">QA4</text>
  <text x="755" y="1380" text-anchor="middle" class="pill-text">QA5</text>
  <rect x="520" y="1398" width="200" height="20" rx="8" class="text-badge"/>
  <text x="620" y="1412" text-anchor="middle" class="pill-text-orange">10 banks x 10 Electronics2 = 100</text>
  <text x="470" y="1424" class="micro">Banks sit about 3 m west of the output/support stack.</text>
  <text x="470" y="1436" class="micro">Feeder TUs sit about 2.5 m east.</text>

  <rect x="820" y="1300" width="590" height="136" rx="14" class="zone"/>
  <text x="840" y="1322" class="label">Adv QA Unit branch</text>
  <rect x="842" y="1334" width="40" height="26" rx="6" class="buffer"/>
  <rect x="888" y="1334" width="40" height="26" rx="6" class="buffer"/>
  <rect x="934" y="1334" width="40" height="26" rx="6" class="buffer"/>
  <rect x="980" y="1334" width="40" height="26" rx="6" class="buffer"/>
  <rect x="1026" y="1334" width="40" height="26" rx="6" class="buffer"/>
  <text x="862" y="1351" text-anchor="middle" class="pill-text">S1</text>
  <text x="908" y="1351" text-anchor="middle" class="pill-text">S2</text>
  <text x="954" y="1351" text-anchor="middle" class="pill-text">S3</text>
  <text x="1000" y="1351" text-anchor="middle" class="pill-text">S4</text>
  <text x="1046" y="1351" text-anchor="middle" class="pill-text">S5</text>
  <rect x="842" y="1370" width="150" height="24" rx="7" class="frame"/>
  <text x="917" y="1385" text-anchor="middle" class="micro">QA S1 direct XS inputs</text>
  <rect x="1010" y="1370" width="28" height="24" rx="5" class="buffer"/>
  <rect x="1052" y="1370" width="28" height="24" rx="5" class="buffer"/>
  <rect x="1094" y="1370" width="28" height="24" rx="5" class="buffer"/>
  <rect x="1136" y="1370" width="28" height="24" rx="5" class="buffer"/>
  <text x="1024" y="1386" text-anchor="middle" class="pill-text">S2</text>
  <text x="1066" y="1386" text-anchor="middle" class="pill-text">S3</text>
  <text x="1108" y="1386" text-anchor="middle" class="pill-text">S4</text>
  <text x="1150" y="1386" text-anchor="middle" class="pill-text">S5</text>
  <text x="842" y="1408" class="micro">QA S1 direct: QCores XS1, Bas LED XS1, Polycalcite XS7, Polycarb S6B XS1, Polysulfide XS9</text>
  <text x="842" y="1420" class="micro">S2: Polycarb S2A | Polycalc XS5 | Bas LED S7 | Polysulf XS4</text>
  <text x="842" y="1432" class="micro">S3: Polycarb S3B | Polycalc XS3 | Bas LED S8 | Polysulf XS5</text>
  <text x="1120" y="1420" class="micro">S4: Polycarb S4A | Polycalc XS6 | Bas LED S6 | Polysulf XS5</text>
  <text x="1120" y="1432" class="micro">S5: Polycarb S4B | Polycalc XS4 | Bas LED S7 | Polysulf XS6</text>

  <path d="M 625 1288 L 625 1300" class="flow"/>
  <path d="M 440 1368 C 430 1368, 425 1368, 420 1368" class="flow"/>
  <path d="M 800 1368 C 810 1368, 815 1368, 820 1368" class="flow"/>
</svg>
